<svg width="48" height="48" viewBox="0 0 48 48" fill="none" xmlns="http://www.w3.org/2000/svg">
<g clip-path="url(#clip0_366_14675)">
<circle cx="24" cy="24" r="24" fill="#1A56DB"/>
<path d="M21.0674 20.2416C20.9723 20.964 20.6175 21.6271 20.0693 22.107C19.5211 22.587 18.8169 22.8509 18.0883 22.8496C13.8553 22.8496 10.4114 19.4057 10.4114 15.1728C10.4101 14.4442 10.674 13.74 11.154 13.1918C11.6339 12.6436 12.297 12.2888 13.0194 12.1938C13.2021 12.1715 13.3871 12.2089 13.5468 12.3003C13.7064 12.3918 13.8323 12.5325 13.9054 12.7013L15.0314 15.2149V15.2213C15.0874 15.3506 15.1105 15.4917 15.0987 15.6321C15.0869 15.7725 15.0405 15.9077 14.9637 16.0258C14.9541 16.0402 14.944 16.0535 14.9333 16.0668L13.8233 17.3826C14.2226 18.194 15.0714 19.0352 15.8934 19.4356L17.191 18.3315C17.2038 18.3208 17.2171 18.3108 17.231 18.3016C17.349 18.223 17.4847 18.1749 17.6259 18.1619C17.7672 18.1489 17.9094 18.1712 18.0398 18.227L18.0467 18.2302L20.5582 19.3556C20.7274 19.4285 20.8684 19.5542 20.9602 19.7139C21.0519 19.8736 21.0895 20.0588 21.0674 20.2416Z" fill="white"/>
<path d="M20.2868 22.1619C20.5693 22.8439 20.594 23.6054 20.3561 24.3042C20.1182 25.003 19.634 25.5913 18.9941 25.9593C15.2801 28.1036 10.5137 26.8265 8.36946 23.1125C7.99922 22.4739 7.87412 21.7223 8.01751 20.9982C8.1609 20.2741 8.56298 19.6269 9.14865 19.1775C9.29763 19.0654 9.47888 19.0045 9.66533 19.0039C9.85177 19.0032 10.0334 19.0629 10.1832 19.174L12.4444 20.8091L12.4477 20.8147C12.5623 20.8997 12.6541 21.0118 12.7148 21.141C12.7756 21.2701 12.8034 21.4123 12.7958 21.5549C12.7946 21.5723 12.7925 21.5892 12.7899 21.6063L12.4825 23.3229C13.2439 23.8326 14.4147 24.1408 15.3388 24.0756L15.9181 22.4496C15.9238 22.4337 15.9305 22.4182 15.938 22.4031C16.0017 22.2743 16.0965 22.1634 16.2138 22.0805C16.331 21.9975 16.4672 21.9451 16.6098 21.928L16.6175 21.9273L19.3912 21.6424C19.5766 21.6207 19.764 21.6596 19.9254 21.7532C20.0869 21.8469 20.2136 21.9903 20.2868 22.1619Z" fill="white"/>
<path d="M19.8647 24.2636C20.4504 24.713 20.8524 25.3601 20.9958 26.0843C21.1392 26.8084 21.0141 27.56 20.6438 28.1986C18.4996 31.9126 13.7332 33.1897 10.0193 31.0455C9.3793 30.6775 8.89517 30.0892 8.65729 29.3904C8.4194 28.6916 8.44403 27.9301 8.72657 27.2481C8.79953 27.0765 8.92603 26.9332 9.08718 26.8394C9.24833 26.7456 9.43549 26.7065 9.62071 26.7278L12.3966 27.0132L12.4022 27.0165C12.544 27.0328 12.6795 27.084 12.7967 27.1654C12.9139 27.2469 13.009 27.3561 13.0737 27.4834C13.0815 27.4991 13.0881 27.5147 13.0943 27.5308L13.6865 29.1712C14.6007 29.2319 15.7688 28.9134 16.5365 28.3949L16.2251 26.6971C16.2221 26.6805 16.2202 26.6637 16.2192 26.6469C16.2099 26.5035 16.2365 26.3601 16.2966 26.2296C16.3567 26.0991 16.4484 25.9856 16.5633 25.8995L16.5697 25.895L18.8294 24.2615C18.979 24.15 19.1608 24.09 19.3474 24.0904C19.534 24.0908 19.7155 24.1515 19.8647 24.2636Z" fill="white"/>
<path d="M20.2424 26.4105C20.9648 26.5056 21.6279 26.8603 22.1078 27.4085C22.5878 27.9568 22.8517 28.6609 22.8504 29.3895C22.8504 33.6225 19.4065 37.0664 15.1736 37.0664C14.445 37.0677 13.7408 36.8037 13.1926 36.3238C12.6443 35.8439 12.2896 35.1808 12.1945 34.4584C12.1722 34.2757 12.2096 34.0907 12.3011 33.9311C12.3925 33.7714 12.5332 33.6455 12.702 33.5724L15.2157 32.4464L15.2221 32.4464C15.3513 32.3904 15.4925 32.3673 15.6328 32.3791C15.7732 32.3909 15.9085 32.4373 16.0265 32.5141C16.0409 32.5237 16.0543 32.5339 16.0676 32.5445L17.3833 33.6545C18.1947 33.2552 19.036 32.4064 19.4363 31.5844L18.3323 30.2868C18.3216 30.274 18.3116 30.2607 18.3024 30.2468C18.2237 30.1288 18.1757 29.9931 18.1627 29.8519C18.1496 29.7107 18.172 29.5684 18.2278 29.4381L18.231 29.4311L19.3564 26.9196C19.4293 26.7505 19.555 26.6095 19.7147 26.5177C19.8744 26.4259 20.0596 26.3883 20.2424 26.4105Z" fill="white"/>
<path d="M22.1612 27.713C22.8432 27.4305 23.6047 27.4059 24.3035 27.6438C25.0023 27.8817 25.5906 28.3658 25.9586 29.0058C28.1029 32.7198 26.8258 37.486 23.1118 39.6303C22.4731 40.0005 21.7216 40.1256 20.9975 39.9823C20.2733 39.8389 19.6262 39.4368 19.1768 38.8511C19.0647 38.7021 19.0038 38.5209 19.0031 38.3344C19.0025 38.148 19.0622 37.9663 19.1733 37.8166L20.8084 35.5554L20.814 35.5521C20.899 35.4375 21.0111 35.3457 21.1403 35.285C21.2694 35.2242 21.4116 35.1964 21.5541 35.204C21.5716 35.2052 21.5884 35.2073 21.6055 35.2099L23.3222 35.5173C23.8319 34.7559 24.1401 33.5851 24.0749 32.661L22.4489 32.0817C22.433 32.076 22.4175 32.0693 22.4024 32.0618C22.2736 31.9981 22.1627 31.9034 22.0797 31.7861C21.9968 31.6688 21.9444 31.5326 21.9272 31.39L21.9265 31.3823L21.6417 28.6086C21.62 28.4232 21.6589 28.2358 21.7525 28.0744C21.8462 27.913 21.9895 27.7862 22.1612 27.713Z" fill="white"/>
<path d="M24.2643 28.1359C24.7137 27.5502 25.3609 27.1481 26.085 27.0048C26.8091 26.8614 27.5607 26.9865 28.1993 27.3567C31.9133 29.501 33.1905 34.2673 31.0462 37.9813C30.6783 38.6212 30.0899 39.1053 29.3911 39.3432C28.6923 39.5811 27.9308 39.5565 27.2488 39.2739C27.0773 39.201 26.9339 39.0745 26.8401 38.9133C26.7463 38.7522 26.7072 38.565 26.7285 38.3798L27.0139 35.604L27.0172 35.5983C27.0335 35.4566 27.0847 35.321 27.1662 35.2038C27.2476 35.0867 27.3569 34.9915 27.4841 34.9268C27.4998 34.919 27.5154 34.9125 27.5316 34.9062L29.1719 34.314C29.2326 33.3998 28.9141 32.2318 28.3956 31.4641L26.6978 31.7755C26.6812 31.7784 26.6644 31.7804 26.6476 31.7814C26.5042 31.7907 26.3608 31.7641 26.2303 31.704C26.0998 31.6439 25.9863 31.5522 25.9002 31.4372L25.8957 31.4309L24.2622 29.1712C24.1507 29.0215 24.0907 28.8398 24.0911 28.6532C24.0915 28.4666 24.1522 28.2851 24.2643 28.1359Z" fill="white"/>
<path d="M26.4107 27.2359C26.5057 26.5135 26.8605 25.8504 27.4087 25.3705C27.9569 24.8906 28.6611 24.6266 29.3897 24.6279C33.6227 24.6279 37.0666 28.0718 37.0666 32.3047C37.068 33.0333 36.804 33.7375 36.324 34.2857C35.8441 34.8339 35.181 35.1887 34.4586 35.2837C34.276 35.3061 34.091 35.2687 33.9313 35.1772C33.7716 35.0857 33.6458 34.9451 33.5726 34.7762L32.4466 32.2626L32.4466 32.2562C32.3906 32.127 32.3675 31.9858 32.3793 31.8455C32.3911 31.7051 32.4375 31.5698 32.5143 31.4517C32.5239 31.4374 32.5341 31.424 32.5447 31.4107L33.6547 30.095C33.2554 29.2836 32.4067 28.4423 31.5846 28.042L30.287 29.146C30.2742 29.1568 30.2609 29.1667 30.247 29.1759C30.129 29.2546 29.9933 29.3026 29.8521 29.3156C29.7109 29.3287 29.5686 29.3063 29.4383 29.2505L29.4313 29.2473L26.9198 28.1219C26.7506 28.049 26.6096 27.9233 26.5179 27.7636C26.4261 27.6039 26.3885 27.4188 26.4107 27.2359Z" fill="white"/>
<path d="M27.7132 25.8371C27.4307 25.1551 27.406 24.3936 27.6439 23.6948C27.8818 22.996 28.366 22.4077 29.0059 22.0397C32.7199 19.8955 37.4863 21.1726 39.6305 24.8865C40.0008 25.5252 40.1259 26.2767 39.9825 27.0008C39.8391 27.725 39.437 28.3721 38.8513 28.8215C38.7024 28.9336 38.5211 28.9945 38.3347 28.9951C38.1482 28.9958 37.9666 28.9361 37.8168 28.825L35.5556 27.1899L35.5523 27.1843C35.4377 27.0993 35.3459 26.9872 35.2852 26.858C35.2244 26.7289 35.1966 26.5867 35.2042 26.4442C35.2054 26.4267 35.2075 26.4099 35.2101 26.3928L35.5175 24.6761C34.7561 24.1664 33.5853 23.8582 32.6612 23.9234L32.0819 25.5494C32.0762 25.5653 32.0695 25.5808 32.062 25.5959C31.9983 25.7247 31.9035 25.8356 31.7862 25.9186C31.669 26.0015 31.5328 26.0539 31.3902 26.0711L31.3825 26.0718L28.6088 26.3566C28.4234 26.3783 28.236 26.3394 28.0746 26.2458C27.9131 26.1521 27.7864 26.0088 27.7132 25.8371Z" fill="white"/>
<path d="M28.1351 23.7364C27.5494 23.287 27.1473 22.6399 27.0039 21.9157C26.8606 21.1916 26.9857 20.44 27.3559 19.8014C29.5002 16.0874 34.2665 14.8103 37.9805 16.9545C38.6205 17.3225 39.1046 17.9108 39.3425 18.6096C39.5804 19.3084 39.5557 20.0699 39.2732 20.7519C39.2002 20.9235 39.0737 21.0668 38.9126 21.1606C38.7514 21.2544 38.5643 21.2935 38.379 21.2722L35.6032 20.9868L35.5976 20.9835C35.4558 20.9672 35.3203 20.916 35.2031 20.8346C35.0859 20.7531 34.9907 20.6439 34.926 20.5166C34.9183 20.5009 34.9117 20.4853 34.9054 20.4692L34.3133 18.8288C33.3991 18.7681 32.231 19.0866 31.4633 19.6051L31.7747 21.3029C31.7776 21.3195 31.7796 21.3363 31.7806 21.3531C31.7899 21.4965 31.7633 21.6399 31.7032 21.7704C31.6431 21.9009 31.5514 22.0144 31.4364 22.1005L31.4301 22.105L29.1704 23.7385C29.0207 23.85 28.839 23.91 28.6524 23.9096C28.4658 23.9092 28.2843 23.8485 28.1351 23.7364Z" fill="white"/>
<path d="M27.2354 21.067C26.513 20.972 25.8499 20.6172 25.37 20.069C24.89 19.5208 24.6261 18.8166 24.6274 18.088C24.6274 13.8551 28.0713 10.4111 32.3042 10.4111C33.0328 10.4098 33.737 10.6738 34.2852 11.1537C34.8334 11.6337 35.1882 12.2967 35.2833 13.0191C35.3056 13.2018 35.2682 13.3868 35.1767 13.5465C35.0853 13.7062 34.9446 13.832 34.7757 13.9052L32.2621 15.0311L32.2557 15.0311C32.1264 15.0871 31.9853 15.1103 31.845 15.0985C31.7046 15.0866 31.5693 15.0402 31.4512 14.9634C31.4368 14.9538 31.4235 14.9437 31.4102 14.933L30.0945 13.8231C29.2831 14.2224 28.4418 15.0711 28.0414 15.8932L29.1455 17.1908C29.1562 17.2035 29.1662 17.2169 29.1754 17.2307C29.2541 17.3487 29.3021 17.4845 29.3151 17.6257C29.3282 17.7669 29.3058 17.9091 29.25 18.0395L29.2468 18.0464L28.1214 20.5579C28.0485 20.7271 27.9228 20.8681 27.7631 20.9598C27.6034 21.0516 27.4182 21.0892 27.2354 21.067Z" fill="white"/>
<path d="M25.839 20.287C25.157 20.5695 24.3955 20.5941 23.6967 20.3562C22.9979 20.1183 22.4096 19.6342 22.0417 18.9942C19.8974 15.2803 21.1745 10.514 24.8885 8.3697C25.5271 7.99946 26.2787 7.87435 27.0028 8.01774C27.7269 8.16113 28.3741 8.56321 28.8234 9.14888C28.9355 9.29786 28.9965 9.4791 28.9971 9.66555C28.9977 9.852 28.9381 10.0337 28.827 10.1834L27.1919 12.4446L27.1863 12.4479C27.1012 12.5625 26.9891 12.6543 26.86 12.715C26.7308 12.7758 26.5886 12.8036 26.4461 12.796C26.4286 12.7948 26.4118 12.7927 26.3947 12.7901L24.678 12.4827C24.1684 13.2441 23.8602 14.4149 23.9253 15.339L25.5514 15.9183C25.5672 15.924 25.5827 15.9307 25.5978 15.9382C25.7266 16.0019 25.8375 16.0966 25.9205 16.2139C26.0035 16.3312 26.0559 16.4674 26.073 16.61L26.0737 16.6177L26.3585 19.3914C26.3802 19.5768 26.3414 19.7642 26.2477 19.9256C26.1541 20.087 26.0107 20.2138 25.839 20.287Z" fill="white"/>
<path d="M23.7362 19.8641C23.2868 20.4498 22.6396 20.8519 21.9155 20.9952C21.1914 21.1386 20.4398 21.0135 19.8012 20.6433C16.0872 18.499 14.81 13.7327 16.9543 10.0187C17.3222 9.3788 17.9105 8.89468 18.6094 8.65679C19.3082 8.41891 20.0697 8.44353 20.7517 8.72607C20.9232 8.79904 21.0666 8.92554 21.1604 9.08668C21.2542 9.24783 21.2933 9.43499 21.272 9.62021L20.9866 12.396L20.9833 12.4017C20.967 12.5434 20.9158 12.679 20.8343 12.7962C20.7529 12.9133 20.6436 13.0085 20.5164 13.0732C20.5007 13.081 20.485 13.0875 20.4689 13.0938L18.8285 13.686C18.7679 14.6002 19.0864 15.7682 19.6049 16.5359L21.3027 16.2245C21.3193 16.2216 21.3361 16.2196 21.3529 16.2186C21.4963 16.2093 21.6397 16.2359 21.7702 16.296C21.9007 16.3561 22.0141 16.4478 22.1003 16.5628L22.1048 16.5691L23.7383 18.8288C23.8498 18.9785 23.9098 19.1602 23.9094 19.3468C23.909 19.5334 23.8482 19.7149 23.7362 19.8641Z" fill="white"/>
</g>
<defs>
<clipPath id="clip0_366_14675">
<rect width="48" height="48" fill="white"/>
</clipPath>
</defs>
</svg>
