<svg width="241" height="36" viewBox="0 0 241 36" fill="none" xmlns="http://www.w3.org/2000/svg">
<g clip-path="url(#clip0_366_14694)">
<circle cx="16" cy="18" r="16" fill="#1A56DB"/>
<path d="M14.0447 15.4944C13.9813 15.976 13.7448 16.4181 13.3793 16.738C13.0138 17.058 12.5444 17.2339 12.0586 17.2331C9.23664 17.2331 6.94068 14.9371 6.94068 12.1152C6.93981 11.6295 7.11578 11.16 7.43574 10.7945C7.7557 10.4291 8.19776 10.1926 8.67935 10.1292C8.80114 10.1143 8.92446 10.1392 9.03092 10.2002C9.13738 10.2612 9.22126 10.355 9.27005 10.4675L10.0207 12.1433V12.1476C10.058 12.2337 10.0735 12.3278 10.0656 12.4214C10.0577 12.515 10.0268 12.6051 9.97554 12.6839C9.96914 12.6935 9.96239 12.7023 9.95528 12.7112L9.21532 13.5884C9.48152 14.1293 10.0473 14.6901 10.5954 14.957L11.4605 14.221C11.4689 14.2139 11.4778 14.2072 11.4871 14.2011C11.5658 14.1486 11.6562 14.1166 11.7504 14.1079C11.8445 14.0992 11.9393 14.1142 12.0263 14.1513L12.0309 14.1535L13.7052 14.9037C13.818 14.9523 13.912 15.0362 13.9732 15.1426C14.0344 15.2491 14.0594 15.3725 14.0447 15.4944Z" fill="white"/>
<path d="M13.5244 16.7746C13.7127 17.2293 13.7291 17.7369 13.5705 18.2028C13.412 18.6687 13.0892 19.0609 12.6626 19.3062C10.1865 20.7357 7.009 19.8843 5.57948 17.4083C5.33265 16.9826 5.24925 16.4815 5.34484 15.9988C5.44043 15.516 5.70849 15.0846 6.09894 14.785C6.19826 14.7103 6.31909 14.6697 6.44339 14.6693C6.56769 14.6688 6.68879 14.7086 6.78862 14.7827L8.29611 15.8727L8.29827 15.8765C8.3747 15.9332 8.43589 16.0079 8.47638 16.094C8.51688 16.1801 8.53542 16.2749 8.53035 16.3699C8.5296 16.3816 8.52817 16.3928 8.52644 16.4042L8.32152 17.5486C8.82911 17.8884 9.60967 18.0939 10.2257 18.0504L10.6119 16.9664C10.6157 16.9558 10.6202 16.9455 10.6252 16.9354C10.6676 16.8496 10.7308 16.7756 10.809 16.7203C10.8872 16.665 10.978 16.6301 11.0731 16.6186L11.0782 16.6182L12.9273 16.4283C13.0509 16.4138 13.1758 16.4397 13.2835 16.5022C13.3911 16.5646 13.4756 16.6602 13.5244 16.7746Z" fill="white"/>
<path d="M13.243 18.1754C13.6334 18.475 13.9015 18.9064 13.9971 19.3892C14.0926 19.8719 14.0092 20.373 13.7624 20.7987C12.3329 23.2747 9.15533 24.1262 6.67934 22.6967C6.25271 22.4514 5.92995 22.0591 5.77136 21.5933C5.61277 21.1274 5.62919 20.6197 5.81755 20.1651C5.86619 20.0507 5.95053 19.9551 6.05796 19.8926C6.16539 19.8301 6.29016 19.804 6.41365 19.8182L8.26421 20.0085L8.26795 20.0106C8.36248 20.0215 8.45284 20.0556 8.53096 20.11C8.60908 20.1643 8.67254 20.2371 8.71565 20.3219C8.72083 20.3324 8.72521 20.3428 8.7294 20.3536L9.12417 21.4471C9.73364 21.4876 10.5123 21.2753 11.0242 20.9296L10.8166 19.7977C10.8146 19.7867 10.8133 19.7755 10.8126 19.7643C10.8064 19.6687 10.8242 19.5731 10.8642 19.4861C10.9043 19.3991 10.9654 19.3234 11.0421 19.266L11.0463 19.263L12.5527 18.174C12.6525 18.0997 12.7737 18.0597 12.8981 18.0599C13.0225 18.0602 13.1435 18.1007 13.243 18.1754Z" fill="white"/>
<path d="M13.4949 19.607C13.9765 19.6704 14.4186 19.9069 14.7385 20.2724C15.0585 20.6378 15.2345 21.1073 15.2336 21.593C15.2336 24.415 12.9377 26.7109 10.1157 26.7109C9.62997 26.7118 9.16052 26.5358 8.79504 26.2159C8.42956 25.8959 8.19305 25.4539 8.12968 24.9723C8.11481 24.8505 8.13973 24.7272 8.20071 24.6207C8.26169 24.5142 8.35546 24.4304 8.46803 24.3816L10.1438 23.631L10.1481 23.631C10.2342 23.5936 10.3283 23.5782 10.4219 23.5861C10.5155 23.5939 10.6056 23.6249 10.6844 23.6761C10.694 23.6825 10.7028 23.6892 10.7117 23.6963L11.5889 24.4363C12.1298 24.1701 12.6907 23.6043 12.9576 23.0563L12.2215 22.1912C12.2144 22.1827 12.2077 22.1738 12.2016 22.1645C12.1492 22.0859 12.1171 21.9954 12.1084 21.9013C12.0998 21.8071 12.1147 21.7123 12.1519 21.6254L12.154 21.6208L12.9043 19.9464C12.9529 19.8336 13.0367 19.7396 13.1431 19.6785C13.2496 19.6173 13.373 19.5922 13.4949 19.607Z" fill="white"/>
<path d="M14.7741 20.4757C15.2288 20.2873 15.7365 20.2709 16.2023 20.4295C16.6682 20.5881 17.0604 20.9109 17.3057 21.3375C18.7353 23.8135 17.8838 26.991 15.4079 28.4205C14.9821 28.6674 14.4811 28.7508 13.9983 28.6552C13.5156 28.5596 13.0841 28.2915 12.7845 27.9011C12.7098 27.8017 12.6692 27.6809 12.6688 27.5566C12.6683 27.4323 12.7081 27.3112 12.7822 27.2114L13.8722 25.7039L13.876 25.7018C13.9327 25.6253 14.0074 25.5641 14.0935 25.5236C14.1796 25.4831 14.2744 25.4646 14.3694 25.4697C14.3811 25.4704 14.3923 25.4719 14.4037 25.4736L15.5482 25.6785C15.8879 25.1709 16.0934 24.3904 16.0499 23.7743L14.9659 23.3881C14.9553 23.3843 14.945 23.3799 14.9349 23.3748C14.8491 23.3324 14.7751 23.2692 14.7198 23.191C14.6645 23.1128 14.6296 23.0221 14.6182 22.927L14.6177 22.9219L14.4278 21.0727C14.4133 20.9491 14.4392 20.8242 14.5017 20.7166C14.5641 20.609 14.6597 20.5245 14.7741 20.4757Z" fill="white"/>
<path d="M16.1761 20.7576C16.4757 20.3671 16.9072 20.0991 17.3899 20.0035C17.8727 19.9079 18.3737 19.9913 18.7995 20.2381C21.2755 21.6677 22.1269 24.8452 20.6974 27.3212C20.4521 27.7478 20.0599 28.0705 19.594 28.2291C19.1281 28.3877 18.6205 28.3713 18.1658 28.1829C18.0514 28.1343 17.9558 28.05 17.8933 27.9425C17.8308 27.8351 17.8047 27.7103 17.8189 27.5869L18.0092 25.7363L18.0114 25.7326C18.0222 25.638 18.0564 25.5477 18.1107 25.4696C18.165 25.3914 18.2378 25.328 18.3227 25.2849C18.3331 25.2797 18.3436 25.2753 18.3543 25.2711L19.4479 24.8763C19.4883 24.2669 19.276 23.4882 18.9303 22.9764L17.7985 23.184C17.7874 23.1859 17.7762 23.1872 17.765 23.1879C17.6694 23.1941 17.5738 23.1764 17.4868 23.1363C17.3998 23.0962 17.3241 23.0351 17.2667 22.9585L17.2637 22.9542L16.1747 21.4478C16.1004 21.348 16.0604 21.2269 16.0606 21.1024C16.0609 20.978 16.1014 20.857 16.1761 20.7576Z" fill="white"/>
<path d="M17.607 20.1569C17.6703 19.6754 17.9068 19.2333 18.2723 18.9134C18.6378 18.5934 19.1073 18.4174 19.593 18.4183C22.415 18.4183 24.7109 20.7142 24.7109 23.5362C24.7118 24.0219 24.5358 24.4913 24.2159 24.8568C23.8959 25.2223 23.4539 25.4588 22.9723 25.5222C22.8505 25.537 22.7271 25.5121 22.6207 25.4512C22.5142 25.3902 22.4303 25.2964 22.3816 25.1838L21.6309 23.5081L21.6309 23.5038C21.5936 23.4176 21.5782 23.3236 21.586 23.23C21.5939 23.1364 21.6248 23.0462 21.6761 22.9675C21.6825 22.9579 21.6892 22.949 21.6963 22.9401L22.4363 22.063C22.1701 21.5221 21.6043 20.9612 21.0562 20.6943L20.1912 21.4304C20.1827 21.4375 20.1738 21.4442 20.1645 21.4503C20.0859 21.5027 19.9954 21.5347 19.9012 21.5434C19.8071 21.5521 19.7123 21.5372 19.6253 21.5L19.6207 21.4979L17.9464 20.7476C17.8336 20.699 17.7396 20.6152 17.6784 20.5087C17.6172 20.4023 17.5922 20.2788 17.607 20.1569Z" fill="white"/>
<path d="M18.4754 19.2244C18.287 18.7697 18.2706 18.2621 18.4292 17.7962C18.5878 17.3303 18.9106 16.9381 19.3372 16.6928C21.8132 15.2633 24.9908 16.1147 26.4203 18.5907C26.6671 19.0164 26.7505 19.5175 26.6549 20.0002C26.5593 20.483 26.2913 20.9144 25.9008 21.214C25.8015 21.2887 25.6807 21.3293 25.5564 21.3298C25.4321 21.3302 25.311 21.2904 25.2111 21.2164L23.7036 20.1263L23.7015 20.1225C23.6251 20.0659 23.5639 19.9911 23.5234 19.905C23.4829 19.8189 23.4643 19.7241 23.4694 19.6291C23.4702 19.6175 23.4716 19.6062 23.4733 19.5948L23.6782 18.4504C23.1706 18.1106 22.3901 17.9052 21.774 17.9486L21.3879 19.0326C21.384 19.0432 21.3796 19.0535 21.3746 19.0636C21.3321 19.1495 21.2689 19.2234 21.1908 19.2787C21.1126 19.334 21.0218 19.369 20.9267 19.3804L20.9216 19.3808L19.0724 19.5707C18.9489 19.5852 18.8239 19.5593 18.7163 19.4969C18.6087 19.4344 18.5242 19.3389 18.4754 19.2244Z" fill="white"/>
<path d="M18.7566 17.8246C18.3661 17.525 18.0981 17.0936 18.0025 16.6108C17.9069 16.1281 17.9903 15.627 18.2371 15.2013C19.6666 12.7253 22.8442 11.8738 25.3202 13.3033C25.7468 13.5486 26.0696 13.9409 26.2281 14.4067C26.3867 14.8726 26.3703 15.3803 26.182 15.8349C26.1333 15.9493 26.049 16.0449 25.9416 16.1074C25.8341 16.1699 25.7093 16.196 25.5859 16.1818L23.7353 15.9915L23.7316 15.9894C23.637 15.9785 23.5467 15.9444 23.4686 15.89C23.3904 15.8357 23.327 15.7629 23.2839 15.6781C23.2787 15.6676 23.2743 15.6572 23.2701 15.6464L22.8753 14.5529C22.2659 14.5124 21.4872 14.7247 20.9754 15.0704L21.1829 16.2023C21.1849 16.2133 21.1862 16.2245 21.1869 16.2357C21.1931 16.3313 21.1753 16.4269 21.1353 16.5139C21.0952 16.6009 21.0341 16.6766 20.9574 16.734L20.9532 16.737L19.4468 17.826C19.347 17.9003 19.2258 17.9403 19.1014 17.9401C18.977 17.9398 18.856 17.8993 18.7566 17.8246Z" fill="white"/>
<path d="M18.1569 16.0444C17.6753 15.981 17.2333 15.7445 16.9133 15.379C16.5934 15.0135 16.4174 14.5441 16.4182 14.0583C16.4182 11.2364 18.7142 8.94043 21.5361 8.94043C22.0219 8.93956 22.4913 9.11554 22.8568 9.4355C23.2223 9.75545 23.4588 10.1975 23.5222 10.6791C23.537 10.8009 23.5121 10.9242 23.4511 11.0307C23.3902 11.1371 23.2964 11.221 23.1838 11.2698L21.5081 12.0204L21.5038 12.0204C21.4176 12.0578 21.3236 12.0732 21.23 12.0653C21.1364 12.0574 21.0462 12.0265 20.9675 11.9753C20.9579 11.9689 20.949 11.9621 20.9401 11.955L20.063 11.2151C19.522 11.4813 18.9612 12.0471 18.6943 12.5951L19.4303 13.4602C19.4375 13.4687 19.4441 13.4776 19.4502 13.4868C19.5027 13.5655 19.5347 13.656 19.5434 13.7501C19.5521 13.8443 19.5372 13.9391 19.5 14.026L19.4979 14.0306L18.7476 15.705C18.699 15.8177 18.6152 15.9117 18.5087 15.9729C18.4022 16.0341 18.2788 16.0592 18.1569 16.0444Z" fill="white"/>
<path d="M17.2259 15.5243C16.7712 15.7127 16.2635 15.7291 15.7977 15.5705C15.3318 15.4119 14.9396 15.0891 14.6943 14.6625C13.2647 12.1865 14.1162 9.00898 16.5921 7.57947C17.0179 7.33265 17.5189 7.24924 18.0017 7.34484C18.4844 7.44043 18.9159 7.70848 19.2155 8.09893C19.2902 8.19825 19.3308 8.31908 19.3312 8.44338C19.3317 8.56767 19.2919 8.68878 19.2178 8.7886L18.1278 10.2961L18.124 10.2982C18.0673 10.3747 17.9926 10.4359 17.9065 10.4764C17.8204 10.5169 17.7256 10.5354 17.6306 10.5303C17.6189 10.5296 17.6077 10.5281 17.5963 10.5264L16.4518 10.3215C16.1121 10.8291 15.9066 11.6096 15.9501 12.2257L17.0341 12.6119C17.0447 12.6157 17.055 12.6201 17.0651 12.6252C17.1509 12.6676 17.2249 12.7308 17.2802 12.809C17.3355 12.8872 17.3704 12.9779 17.3818 13.073L17.3823 13.0781L17.5722 14.9273C17.5867 15.0508 17.5608 15.1758 17.4983 15.2834C17.4359 15.391 17.3403 15.4755 17.2259 15.5243Z" fill="white"/>
<path d="M15.8241 15.2424C15.5245 15.6329 15.0931 15.9009 14.6103 15.9965C14.1276 16.0921 13.6265 16.0087 13.2008 15.7619C10.7248 14.3323 9.87333 11.1548 11.3029 8.67884C11.5481 8.25221 11.9404 7.92946 12.4062 7.77087C12.8721 7.61228 13.3798 7.6287 13.8344 7.81705C13.9488 7.8657 14.0444 7.95003 14.1069 8.05746C14.1694 8.1649 14.1955 8.28967 14.1813 8.41315L13.991 10.2637L13.9889 10.2674C13.978 10.362 13.9439 10.4523 13.8896 10.5304C13.8352 10.6086 13.7624 10.672 13.6776 10.7151C13.6671 10.7203 13.6567 10.7247 13.646 10.7289L12.5524 11.1237C12.5119 11.7331 12.7243 12.5118 13.0699 13.0236L14.2018 12.816C14.2129 12.8141 14.224 12.8128 14.2353 12.8121C14.3308 12.8059 14.4265 12.8236 14.5135 12.8637C14.6005 12.9038 14.6761 12.9649 14.7335 13.0415L14.7365 13.0458L15.8255 14.5522C15.8998 14.652 15.9399 14.7731 15.9396 14.8976C15.9394 15.022 15.8988 15.143 15.8241 15.2424Z" fill="white"/>
</g>
<path d="M41.7216 9.54545H45.5909L50.7727 22.1932H50.9773L56.1591 9.54545H60.0284V27H56.9943V15.0085H56.8324L52.0085 26.9489H49.7415L44.9176 14.983H44.7557V27H41.7216V9.54545ZM69.1307 27.2557C67.8182 27.2557 66.6847 26.983 65.7301 26.4375C64.7813 25.8864 64.0511 25.108 63.5398 24.1023C63.0284 23.0909 62.7727 21.9006 62.7727 20.5312C62.7727 19.1847 63.0284 18.0028 63.5398 16.9858C64.0568 15.9631 64.7784 15.1676 65.7045 14.5994C66.6307 14.0256 67.7188 13.7386 68.9688 13.7386C69.7756 13.7386 70.5369 13.8693 71.2528 14.1307C71.9744 14.3864 72.6108 14.7841 73.1619 15.3239C73.7188 15.8636 74.1563 16.5511 74.4744 17.3864C74.7926 18.2159 74.9517 19.2045 74.9517 20.3523V21.2983H64.2216V19.2188H71.9943C71.9886 18.6278 71.8608 18.1023 71.6108 17.642C71.3608 17.1761 71.0114 16.8097 70.5625 16.5426C70.1193 16.2756 69.6023 16.142 69.0114 16.142C68.3807 16.142 67.8267 16.2955 67.3494 16.6023C66.8722 16.9034 66.5 17.3011 66.233 17.7955C65.9716 18.2841 65.8381 18.821 65.8324 19.4062V21.2216C65.8324 21.983 65.9716 22.6364 66.25 23.1818C66.5284 23.7216 66.9176 24.1364 67.4176 24.4261C67.9176 24.7102 68.5028 24.8523 69.1733 24.8523C69.6222 24.8523 70.0284 24.7898 70.392 24.6648C70.7557 24.5341 71.071 24.3438 71.3381 24.0938C71.6051 23.8438 71.8068 23.5341 71.9432 23.1648L74.8239 23.4886C74.642 24.25 74.2955 24.9148 73.7841 25.483C73.2784 26.0455 72.6307 26.483 71.8409 26.7955C71.0511 27.1023 70.1477 27.2557 69.1307 27.2557ZM81.3288 27.2642C80.4993 27.2642 79.7521 27.1165 79.0874 26.821C78.4283 26.5199 77.9055 26.0767 77.5192 25.4915C77.1385 24.9062 76.9482 24.1847 76.9482 23.3267C76.9482 22.5881 77.0845 21.9773 77.3572 21.4943C77.63 21.0114 78.0021 20.625 78.4737 20.3352C78.9453 20.0455 79.4766 19.8267 80.0675 19.679C80.6641 19.5256 81.2805 19.4148 81.9169 19.3466C82.6839 19.267 83.3061 19.196 83.7834 19.1335C84.2607 19.0653 84.6072 18.9631 84.8232 18.8267C85.0447 18.6847 85.1555 18.4659 85.1555 18.1705V18.1193C85.1555 17.4773 84.9652 16.9801 84.5845 16.6278C84.2038 16.2756 83.6555 16.0994 82.9396 16.0994C82.1839 16.0994 81.5845 16.2642 81.1413 16.5938C80.7038 16.9233 80.4084 17.3125 80.255 17.7614L77.3743 17.3523C77.6016 16.5568 77.9766 15.892 78.4993 15.358C79.022 14.8182 79.6612 14.4148 80.4169 14.1477C81.1726 13.875 82.0078 13.7386 82.9226 13.7386C83.5533 13.7386 84.1811 13.8125 84.8061 13.9602C85.4311 14.108 86.0021 14.3523 86.5192 14.6932C87.0362 15.0284 87.451 15.4858 87.7635 16.0653C88.0817 16.6449 88.2408 17.3693 88.2408 18.2386V27H85.2749V25.2017H85.1726C84.9851 25.5653 84.7209 25.9062 84.38 26.2244C84.0447 26.5369 83.6214 26.7898 83.1101 26.983C82.6044 27.1705 82.0107 27.2642 81.3288 27.2642ZM82.13 24.9972C82.7493 24.9972 83.2862 24.875 83.7408 24.6307C84.1953 24.3807 84.5447 24.0511 84.7891 23.642C85.0391 23.233 85.1641 22.7869 85.1641 22.304V20.7614C85.0675 20.8409 84.9027 20.9148 84.6697 20.983C84.4425 21.0511 84.1868 21.1108 83.9027 21.1619C83.6186 21.2131 83.3374 21.2585 83.0589 21.2983C82.7805 21.3381 82.5391 21.3722 82.3345 21.4006C81.8743 21.4631 81.4624 21.5653 81.0987 21.7074C80.7351 21.8494 80.4482 22.0483 80.2379 22.304C80.0277 22.554 79.9226 22.8778 79.9226 23.2756C79.9226 23.8438 80.13 24.2727 80.5447 24.5625C80.9595 24.8523 81.4879 24.9972 82.13 24.9972ZM94.4283 19.3295V27H91.343V13.9091H94.2919V16.1335H94.4453C94.7464 15.4006 95.2266 14.8182 95.8857 14.3864C96.5504 13.9545 97.3714 13.7386 98.3487 13.7386C99.2521 13.7386 100.039 13.9318 100.71 14.3182C101.386 14.7045 101.908 15.2642 102.278 15.9972C102.653 16.7301 102.837 17.6193 102.832 18.6648V27H99.7464V19.142C99.7464 18.267 99.5192 17.5824 99.0646 17.0881C98.6158 16.5937 97.9936 16.3466 97.1982 16.3466C96.6584 16.3466 96.1783 16.4659 95.7578 16.7045C95.343 16.9375 95.0163 17.2756 94.7777 17.7188C94.5447 18.1619 94.4283 18.6989 94.4283 19.3295ZM105.968 27V13.9091H109.053V27H105.968ZM107.519 12.0511C107.031 12.0511 106.61 11.8892 106.258 11.5653C105.906 11.2358 105.729 10.8409 105.729 10.3807C105.729 9.91477 105.906 9.51989 106.258 9.19602C106.61 8.86648 107.031 8.7017 107.519 8.7017C108.013 8.7017 108.434 8.86648 108.781 9.19602C109.133 9.51989 109.309 9.91477 109.309 10.3807C109.309 10.8409 109.133 11.2358 108.781 11.5653C108.434 11.8892 108.013 12.0511 107.519 12.0511ZM115.311 19.3295V27H112.226V13.9091H115.175V16.1335H115.328C115.629 15.4006 116.109 14.8182 116.768 14.3864C117.433 13.9545 118.254 13.7386 119.232 13.7386C120.135 13.7386 120.922 13.9318 121.592 14.3182C122.268 14.7045 122.791 15.2642 123.161 15.9972C123.536 16.7301 123.72 17.6193 123.714 18.6648V27H120.629V19.142C120.629 18.267 120.402 17.5824 119.947 17.0881C119.499 16.5937 118.876 16.3466 118.081 16.3466C117.541 16.3466 117.061 16.4659 116.641 16.7045C116.226 16.9375 115.899 17.2756 115.661 17.7188C115.428 18.1619 115.311 18.6989 115.311 19.3295ZM132.544 32.1818C131.436 32.1818 130.484 32.0313 129.689 31.7301C128.893 31.4347 128.254 31.0369 127.771 30.5369C127.288 30.0369 126.953 29.483 126.766 28.875L129.544 28.2017C129.669 28.4574 129.851 28.7102 130.089 28.9602C130.328 29.2159 130.649 29.4261 131.053 29.5909C131.462 29.7614 131.976 29.8466 132.595 29.8466C133.47 29.8466 134.195 29.6335 134.768 29.2074C135.342 28.7869 135.629 28.0938 135.629 27.1278V24.6477H135.476C135.317 24.9659 135.084 25.2926 134.777 25.6278C134.476 25.9631 134.075 26.2443 133.575 26.4716C133.081 26.6989 132.459 26.8125 131.709 26.8125C130.703 26.8125 129.791 26.5767 128.973 26.1051C128.161 25.6278 127.513 24.9176 127.03 23.9744C126.553 23.0256 126.314 21.8381 126.314 20.4119C126.314 18.9744 126.553 17.7614 127.03 16.7727C127.513 15.7784 128.163 15.0256 128.982 14.5142C129.8 13.9972 130.712 13.7386 131.717 13.7386C132.484 13.7386 133.115 13.8693 133.609 14.1307C134.109 14.3864 134.507 14.696 134.803 15.0597C135.098 15.4176 135.322 15.7557 135.476 16.0739H135.646V13.9091H138.689V27.2131C138.689 28.3324 138.422 29.2585 137.888 29.9915C137.354 30.7244 136.624 31.2727 135.697 31.6364C134.771 32 133.72 32.1818 132.544 32.1818ZM132.57 24.392C133.223 24.392 133.78 24.233 134.24 23.9148C134.7 23.5966 135.05 23.1392 135.288 22.5426C135.527 21.946 135.646 21.2301 135.646 20.3949C135.646 19.571 135.527 18.8494 135.288 18.2301C135.055 17.6108 134.709 17.1307 134.249 16.7898C133.794 16.4432 133.234 16.2699 132.57 16.2699C131.882 16.2699 131.308 16.4489 130.848 16.8068C130.388 17.1648 130.041 17.6562 129.808 18.2812C129.575 18.9006 129.459 19.6051 129.459 20.3949C129.459 21.196 129.575 21.8977 129.808 22.5C130.047 23.0966 130.396 23.5625 130.857 23.8977C131.322 24.2273 131.893 24.392 132.57 24.392ZM148.482 13.9091V16.2955H140.743V13.9091H148.482ZM142.678 27V12.6733C142.678 11.7926 142.859 11.0597 143.223 10.4744C143.592 9.8892 144.087 9.4517 144.706 9.16193C145.325 8.87216 146.013 8.72727 146.768 8.72727C147.303 8.72727 147.777 8.76989 148.192 8.85511C148.607 8.94034 148.913 9.01705 149.112 9.08523L148.499 11.4716C148.368 11.4318 148.203 11.392 148.004 11.3523C147.805 11.3068 147.584 11.2841 147.339 11.2841C146.766 11.2841 146.359 11.4233 146.121 11.7017C145.888 11.9744 145.771 12.3665 145.771 12.8778V27H142.678ZM159.241 21.4943V13.9091H162.327V27H159.335V24.6733H159.199C158.903 25.4062 158.418 26.0057 157.741 26.4716C157.071 26.9375 156.244 27.1705 155.261 27.1705C154.403 27.1705 153.645 26.9801 152.986 26.5994C152.332 26.2131 151.821 25.6534 151.452 24.9205C151.082 24.1818 150.898 23.2898 150.898 22.2443V13.9091H153.983V21.767C153.983 22.5966 154.21 23.2557 154.665 23.7443C155.119 24.233 155.716 24.4773 156.455 24.4773C156.909 24.4773 157.349 24.3665 157.776 24.1449C158.202 23.9233 158.551 23.5938 158.824 23.1562C159.102 22.7131 159.241 22.1591 159.241 21.4943ZM168.585 9.54545V27H165.499V9.54545H168.585Z" fill="#111928"/>
<defs>
<clipPath id="clip0_366_14694">
<rect width="32" height="32" fill="white" transform="translate(0 2)"/>
</clipPath>
</defs>
</svg>
